<?xml version="1.0" encoding="UTF-8" standalone="no"?>
<svg
   xmlns:dc="http://purl.org/dc/elements/1.1/"
   xmlns:cc="http://creativecommons.org/ns#"
   xmlns:rdf="http://www.w3.org/1999/02/22-rdf-syntax-ns#"
   xmlns:svg="http://www.w3.org/2000/svg"
   xmlns="http://www.w3.org/2000/svg"
   viewBox="0 0 640 640"
   height="640"
   width="640"
   id="svg899"
   version="1.1">
  <metadata
     id="metadata905">
    <rdf:RDF>
      <cc:Work
         rdf:about="">
        <dc:format>image/svg+xml</dc:format>
        <dc:type
           rdf:resource="http://purl.org/dc/dcmitype/StillImage" />
        <dc:title></dc:title>
      </cc:Work>
    </rdf:RDF>
  </metadata>
  <defs
     id="defs903" />
  <path
     id="path941"
     d="m 146.67863,546.53531 c -25.22548,-5.66913 -45.11781,-24.10006 -52.830109,-48.94894 l -2.169965,-6.99154 V 321.39956 152.20428 l 2.169965,-6.99154 c 7.080959,-22.81478 24.888209,-40.62202 47.702999,-47.703031 l 6.99154,-2.169964 h 169.19528 169.19528 l 6.99154,2.169964 c 22.4468,6.966801 39.18934,23.374001 47.25108,46.304721 l 2.6219,7.45764 v 170.12749 170.12748 l -2.62533,7.45764 c -7.96671,22.63085 -23.21849,37.88259 -45.84934,45.84936 l -7.45763,2.62532 -167.79694,0.16649 c -137.84493,0.13677 -168.79543,-0.058 -173.39027,-1.09054 z m 337.52022,-19.20369 c 19.44538,-3.57707 35.89447,-20.02618 39.47155,-39.47156 1.43131,-7.78069 1.43131,-325.14032 0,-332.92101 -3.57708,-19.44538 -20.02617,-35.89449 -39.47155,-39.47157 -7.78069,-1.43129 -325.1403,-1.43129 -332.92098,0 -19.44543,3.57708 -35.89449,20.02619 -39.47158,39.47157 -1.43131,7.78069 -1.43131,325.14032 0,332.92101 2.72369,14.80635 13.31812,28.63062 26.94862,35.16437 3.84534,1.84326 9.08899,3.74845 11.65258,4.23378 6.92478,1.31099 326.68146,1.38132 333.79136,0.0735 z M 259.89146,420.49549 c -1.6282,-0.25354 -10.99147,-8.98522 -29.62352,-27.62524 -23.97259,-23.98293 -27.31133,-27.67697 -27.81388,-30.77382 -1.22351,-7.54002 -0.12641,-8.9337 29.2677,-37.17922 15.08565,-14.49617 28.69769,-26.89957 30.24897,-27.5631 7.50109,-3.20841 15.59407,5.77106 11.85478,13.15332 -0.56721,1.11988 -9.26776,10.32115 -19.33446,20.44723 l -18.30323,18.41105 h 88.31777 88.31771 v -53.56518 -53.5652 l -41.29255,-0.26967 c -37.39208,-0.24419 -41.52625,-0.42292 -43.76738,-1.89221 -5.0386,-3.3033 -5.03839,-13.02817 2.7e-4,-16.33123 2.25478,-1.47809 6.6449,-1.6462 49.31239,-1.88825 39.93497,-0.22657 47.33012,-0.0598 50.18176,1.13171 6.32621,2.64326 6.13987,0.2812 5.85923,74.26704 l -0.25131,66.2496 -3.04438,2.71986 -3.04437,2.71985 h -95.29452 -95.29462 l 18.30323,18.41105 c 10.0667,10.12608 18.76725,19.32735 19.33446,20.44724 2.51654,4.96829 -0.0105,10.90586 -5.26245,12.3644 -3.51948,0.9774 -4.32224,1.00801 -8.6716,0.33077 z"
     style="fill:#000000;stroke-width:0.93220538" />
</svg>
