<?xml version="1.0" encoding="UTF-8" standalone="no"?>
<svg
   xmlns:dc="http://purl.org/dc/elements/1.1/"
   xmlns:cc="http://creativecommons.org/ns#"
   xmlns:rdf="http://www.w3.org/1999/02/22-rdf-syntax-ns#"
   xmlns:svg="http://www.w3.org/2000/svg"
   xmlns="http://www.w3.org/2000/svg"
   viewBox="0 0 845.35168 640"
   height="640"
   width="845.35168"
   id="svg899"
   version="1.1">
  <metadata
     id="metadata905">
    <rdf:RDF>
      <cc:Work
         rdf:about="">
        <dc:format>image/svg+xml</dc:format>
        <dc:type
           rdf:resource="http://purl.org/dc/dcmitype/StillImage" />
        <dc:title></dc:title>
      </cc:Work>
    </rdf:RDF>
  </metadata>
  <defs
     id="defs903" />
  <g
     style="fill:#000000"
     id="g981"
     transform="matrix(9.941509,0,0,-9.941509,-2223.902,5256.6611)">
    <g
       style="fill:#000000"
       id="g124"
       transform="translate(229.8604,511.3601)">
      <path
         d="m 0,0 c -0.542,-0.008 -3.2,-0.202 -3.2,-3.195 v -23.189 c 0.007,-0.527 0.195,-3.195 3.195,-3.195 h 72.719 c 0.526,0.007 3.195,0.195 3.195,3.195 V -3.195 C 75.901,-2.669 75.713,0 72.714,0 Z M 72.714,-32.239 H -0.005 c -4.296,0 -5.855,3.501 -5.855,5.855 v 23.189 c 0,4.296 3.501,5.855 5.855,5.855 h 72.719 c 4.295,0 5.855,-3.502 5.855,-5.855 v -23.189 c 0,-4.296 -3.502,-5.855 -5.855,-5.855"
         style="fill:#000000;fill-opacity:1;fill-rule:nonzero;stroke:none"
         id="path126" />
    </g>
    <g
       style="fill:#000000"
       id="g128"
       transform="translate(253.5879,497.0124)">
      <path
         d="m 0,0 h 4.827 c 0.625,0 1.075,0.325 1.075,1.025 0,0.701 -0.45,1.026 -1.075,1.026 H 0 v 5.827 h 5.302 c 0.625,0 1.075,0.325 1.075,1.025 0,0.7 -0.45,1.025 -1.075,1.025 h -6.327 c -0.826,0 -1.176,-0.525 -1.176,-1.2 V -6.677 c 0,-0.675 0.35,-1.201 1.176,-1.201 h 6.327 c 0.625,0 1.075,0.326 1.075,1.026 0,0.7 -0.45,1.025 -1.075,1.025 H 0 Z m 8.602,1.826 c 0,-3.702 7.103,-3.552 7.103,-6.152 0,-0.901 -0.976,-1.801 -2.576,-1.801 -2.401,0 -3.201,1.626 -4.177,1.626 -0.475,0 -0.9,-0.401 -0.9,-1.001 0,-1.125 2.201,-2.526 5.002,-2.526 2.476,0 4.851,1.326 4.851,4.102 0,3.851 -7.102,3.601 -7.102,5.927 0,1.125 1.075,1.675 2.326,1.675 2.101,0 2.476,-1.35 3.426,-1.35 0.675,0 1,0.425 1,0.9 0,1.375 -2.601,2.351 -4.426,2.351 -2.226,0 -4.527,-1.301 -4.527,-3.751 M 19.43,-1.225 c 0,-3.527 1.951,-6.803 6.002,-6.803 2.276,0 3.502,0.901 3.502,1.726 0,0.6 -0.351,0.925 -0.851,0.925 -0.7,0 -1.1,-0.75 -2.651,-0.75 -2.725,0 -3.801,2.651 -3.801,4.902 0,2.25 1.076,4.901 3.801,4.901 1.501,0 1.826,-0.7 2.676,-0.7 0.525,0 0.901,0.475 0.901,0.925 0,0.901 -1.326,1.676 -3.577,1.676 -4.051,0 -6.002,-3.276 -6.002,-6.802"
         style="fill:#000000;fill-opacity:1;fill-rule:nonzero;stroke:none"
         id="path130" />
    </g>
  </g>
</svg>
