<?xml version="1.0" encoding="UTF-8" standalone="no"?>
<svg
   xmlns:dc="http://purl.org/dc/elements/1.1/"
   xmlns:cc="http://creativecommons.org/ns#"
   xmlns:rdf="http://www.w3.org/1999/02/22-rdf-syntax-ns#"
   xmlns:svg="http://www.w3.org/2000/svg"
   xmlns="http://www.w3.org/2000/svg"
   version="1.1"
   id="svg899"
   width="640"
   height="640"
   viewBox="0 0 640 640">
  <metadata
     id="metadata905">
    <rdf:RDF>
      <cc:Work
         rdf:about="">
        <dc:format>image/svg+xml</dc:format>
        <dc:type
           rdf:resource="http://purl.org/dc/dcmitype/StillImage" />
        <dc:title></dc:title>
      </cc:Work>
    </rdf:RDF>
  </metadata>
  <defs
     id="defs903" />
  <path
     style="fill:#000000;stroke-width:1.16668236"
     d="m 109.72112,602.21991 c -8.43714,-1.43739 -16.86661,-4.44879 -27.14098,-9.69602 -7.14017,-3.64657 -11.811891,-7.24513 -19.880341,-15.31359 -11.64518,-11.64518 -17.91226,-22.04086 -22.88669,-37.96392 l -2.73358,-8.75011 V 319.9101 109.32392 l 2.73358,-8.75011 c 4.97443,-15.923057 11.24151,-26.318736 22.88669,-37.96392 11.64518,-11.645183 22.04086,-17.912258 37.963911,-22.886693 l 8.75012,-2.733576 H 320 530.58617 l 8.75011,2.733576 c 15.92306,4.974435 26.31874,11.24151 37.96392,22.886693 11.64519,11.645184 17.91226,22.040863 22.8867,37.96392 l 2.73357,8.75011 V 319.9101 530.49627 l -2.73357,8.75011 c -4.97444,15.92306 -11.24151,26.31874 -22.8867,37.96392 -11.37747,11.37747 -21.40907,17.51731 -37.38058,22.87878 l -8.16677,2.74149 -208.2528,0.16539 c -114.53904,0.091 -210.73956,-0.25825 -213.77893,-0.77605 z M 537.49207,575.7001 c 18.19059,-6.92795 32.18581,-21.09323 38.29663,-38.762 l 2.63144,-7.60852 V 319.9101 110.49061 l -2.63144,-7.60853 C 569.58998,84.95919 554.9509,70.320109 537.028,64.121392 l -7.60852,-2.631441 H 320 110.58051 l -7.60852,2.631441 C 85.30324,70.232213 71.13795,84.227432 64.209999,102.41801 l -2.63014,6.90591 -0.31646,207.08613 c -0.2013,131.72277 0.0986,209.0375 0.82416,212.44819 4.094301,19.24725 17.82501,36.84534 34.61986,44.37085 12.961611,5.80789 2.57817,5.56288 225.625941,5.32409 l 208.25281,-0.22294 z"
     id="path1573" />
  <g
     id="flowRoot1593"
     style="font-style:normal;font-weight:normal;font-size:40px;line-height:1.25;font-family:sans-serif;letter-spacing:0px;word-spacing:0px;fill:#000000;fill-opacity:1;stroke:none"
     transform="translate(-9.0019531,10.617188)"
     aria-label="ESC">
    <path
       id="path2530"
       style="font-style:normal;font-variant:normal;font-weight:bold;font-stretch:normal;font-size:160px;font-family:sans-serif;-inkscape-font-specification:'sans-serif Bold'"
       d="m 170.48633,250.98437 h 81.17187 v 22.73438 h -51.09375 v 21.71875 h 48.04688 v 22.73437 h -48.04688 v 26.71875 h 52.8125 V 367.625 h -82.89062 z" />
    <path
       id="path2532"
       style="font-style:normal;font-variant:normal;font-weight:bold;font-stretch:normal;font-size:160px;font-family:sans-serif;-inkscape-font-specification:'sans-serif Bold'"
       d="m 360.95508,254.65625 v 24.6875 q -9.60938,-4.29688 -18.75,-6.48438 -9.14063,-2.1875 -17.26563,-2.1875 -10.78125,0 -15.9375,2.96875 -5.15625,2.96875 -5.15625,9.21875 0,4.6875 3.4375,7.34375 3.51563,2.57813 12.65625,4.45313 l 12.8125,2.57812 q 19.45313,3.90625 27.65625,11.875 8.20313,7.96875 8.20313,22.65625 0,19.29688 -11.48438,28.75 -11.40625,9.375 -34.92187,9.375 -11.09375,0 -22.26563,-2.10937 -11.17187,-2.10938 -22.34375,-6.25 v -25.39063 q 11.17188,5.9375 21.5625,8.98438 10.46875,2.96875 20.15625,2.96875 9.84375,0 15.07813,-3.28125 5.23437,-3.28125 5.23437,-9.375 0,-5.46875 -3.59375,-8.4375 -3.51562,-2.96875 -14.14062,-5.3125 l -11.64063,-2.57813 q -17.5,-3.75 -25.625,-11.95312 -8.04687,-8.20313 -8.04687,-22.10938 0,-17.42187 11.25,-26.79687 11.25,-9.375 32.34375,-9.375 9.60937,0 19.76562,1.48437 10.15625,1.40625 21.01563,4.29688 z" />
    <path
       id="path2534"
       style="font-style:normal;font-variant:normal;font-weight:bold;font-stretch:normal;font-size:160px;font-family:sans-serif;-inkscape-font-specification:'sans-serif Bold'"
       d="m 487.51758,361.21875 q -8.28125,4.29687 -17.26563,6.48437 -8.98437,2.1875 -18.75,2.1875 -29.14062,0 -46.17187,-16.25 -17.03125,-16.32812 -17.03125,-44.21875 0,-27.96875 17.03125,-44.21875 17.03125,-16.32812 46.17187,-16.32812 9.76563,0 18.75,2.1875 8.98438,2.1875 17.26563,6.48437 v 24.14063 q -8.35938,-5.70313 -16.48438,-8.35938 -8.125,-2.65625 -17.10937,-2.65625 -16.09375,0 -25.3125,10.3125 -9.21875,10.3125 -9.21875,28.4375 0,18.04688 9.21875,28.35938 9.21875,10.3125 25.3125,10.3125 8.98437,0 17.10937,-2.65625 8.125,-2.65625 16.48438,-8.35938 z" />
  </g>
</svg>
