<?xml version="1.0" encoding="UTF-8" standalone="no"?>
<svg
   xmlns:dc="http://purl.org/dc/elements/1.1/"
   xmlns:cc="http://creativecommons.org/ns#"
   xmlns:rdf="http://www.w3.org/1999/02/22-rdf-syntax-ns#"
   xmlns:svg="http://www.w3.org/2000/svg"
   xmlns="http://www.w3.org/2000/svg"
   version="1.1"
   id="svg899"
   width="640"
   height="640"
   viewBox="0 0 640 640">
  <metadata
     id="metadata905">
    <rdf:RDF>
      <cc:Work
         rdf:about="">
        <dc:format>image/svg+xml</dc:format>
        <dc:type
           rdf:resource="http://purl.org/dc/dcmitype/StillImage" />
        <dc:title></dc:title>
      </cc:Work>
    </rdf:RDF>
  </metadata>
  <defs
     id="defs903" />
  <path
     style="fill:#000000;stroke-width:1.16668236"
     d="m 109.72112,602.21991 c -8.43714,-1.43739 -16.86661,-4.44879 -27.14098,-9.69602 -7.14017,-3.64657 -11.811891,-7.24513 -19.880341,-15.31359 -11.64518,-11.64518 -17.91226,-22.04086 -22.88669,-37.96392 l -2.73358,-8.75011 V 319.9101 109.32392 l 2.73358,-8.75011 c 4.97443,-15.923057 11.24151,-26.318736 22.88669,-37.96392 11.64518,-11.645183 22.04086,-17.912258 37.963911,-22.886693 l 8.75012,-2.733576 H 320 530.58617 l 8.75011,2.733576 c 15.92306,4.974435 26.31874,11.24151 37.96392,22.886693 11.64519,11.645184 17.91226,22.040863 22.8867,37.96392 l 2.73357,8.75011 V 319.9101 530.49627 l -2.73357,8.75011 c -4.97444,15.92306 -11.24151,26.31874 -22.8867,37.96392 -11.37747,11.37747 -21.40907,17.51731 -37.38058,22.87878 l -8.16677,2.74149 -208.2528,0.16539 c -114.53904,0.091 -210.73956,-0.25825 -213.77893,-0.77605 z M 537.49207,575.7001 c 18.19059,-6.92795 32.18581,-21.09323 38.29663,-38.762 l 2.63144,-7.60852 V 319.9101 110.49061 l -2.63144,-7.60853 C 569.58998,84.95919 554.9509,70.320109 537.028,64.121392 l -7.60852,-2.631441 H 320 110.58051 l -7.60852,2.631441 C 85.30324,70.232213 71.13795,84.227432 64.209999,102.41801 l -2.63014,6.90591 -0.31646,207.08613 c -0.2013,131.72277 0.0986,209.0375 0.82416,212.44819 4.094301,19.24725 17.82501,36.84534 34.61986,44.37085 12.961611,5.80789 2.57817,5.56288 225.625941,5.32409 l 208.25281,-0.22294 z"
     id="path1573" />
  <g
     id="flowRoot1593"
     style="font-style:normal;font-weight:normal;font-size:40px;line-height:1.25;font-family:sans-serif;letter-spacing:0px;word-spacing:0px;fill:#000000;fill-opacity:1;stroke:none"
     transform="translate(44.845703,-30.925781)"
     aria-label="M">
    <path
       id="path3258"
       style="font-style:normal;font-variant:normal;font-weight:bold;font-stretch:normal;font-size:240px;font-family:sans-serif;-inkscape-font-specification:'sans-serif Bold'"
       d="m 177.83008,263.44531 h 57.42187 l 39.84375,93.63281 40.07813,-93.63281 h 57.30469 V 438.40625 H 329.82227 V 310.4375 l -40.3125,94.33594 h -28.59375 l -40.3125,-94.33594 v 127.96875 h -42.77344 z" />
  </g>
</svg>
