<?xml version="1.0" encoding="UTF-8" standalone="no"?>
<svg
   xmlns:dc="http://purl.org/dc/elements/1.1/"
   xmlns:cc="http://creativecommons.org/ns#"
   xmlns:rdf="http://www.w3.org/1999/02/22-rdf-syntax-ns#"
   xmlns:svg="http://www.w3.org/2000/svg"
   xmlns="http://www.w3.org/2000/svg"
   viewBox="0 0 640 640"
   height="640"
   width="640"
   id="svg899"
   version="1.1">
  <metadata
     id="metadata905">
    <rdf:RDF>
      <cc:Work
         rdf:about="">
        <dc:format>image/svg+xml</dc:format>
        <dc:type
           rdf:resource="http://purl.org/dc/dcmitype/StillImage" />
        <dc:title></dc:title>
      </cc:Work>
    </rdf:RDF>
  </metadata>
  <defs
     id="defs903" />
  <g
     transform="matrix(1.2866557,0,0,1.2866557,-91.729835,-91.729835)"
     style="fill:#000000"
     id="g1705">
    <g
       style="fill:#000000"
       id="g132"
       transform="matrix(11.709394,0,0,-11.709394,319.78118,527.948)">
      <path
         d="m 0,0 c -3.746,0 -7.493,-0.041 -11.239,0.011 -3.872,0.054 -6.435,2.566 -6.466,6.459 -0.062,7.572 -0.066,15.145 0.004,22.717 0.034,3.663 2.504,6.231 6.141,6.275 7.731,0.095 15.465,0.097 23.195,-0.004 3.633,-0.047 6.071,-2.619 6.104,-6.309 C 17.807,21.577 17.806,14.004 17.741,6.432 17.707,2.553 15.128,0.061 11.239,0.01 7.493,-0.039 3.746,0 0,0 m -15.382,17.948 c 0,-3.667 -0.031,-7.335 0.01,-11.002 0.034,-3.059 1.523,-4.586 4.551,-4.601 7.175,-0.037 14.35,-0.032 21.525,-0.004 3.196,0.013 4.693,1.5 4.707,4.69 0.031,7.175 0.033,14.35 -0.002,21.525 -0.015,3.076 -1.493,4.561 -4.55,4.576 -7.255,0.034 -14.51,0.036 -21.765,-0.002 -2.933,-0.016 -4.42,-1.504 -4.463,-4.42 -0.052,-3.586 -0.012,-7.175 -0.013,-10.762"
         style="fill:#000000;fill-opacity:1;fill-rule:nonzero;stroke:none"
         id="path134" />
    </g>
    <g
       style="fill:#000000"
       id="g136"
       transform="matrix(11.709394,0,0,-11.709394,256.29504,247.19684)">
      <path
         d="m 0,0 h 0.05 l 4.262,-14.391 c 0.226,-0.727 0.627,-0.902 1.128,-0.902 0.502,0 0.903,0.175 1.129,0.902 L 10.831,0 h 0.05 l 2.081,-14.341 c 0.1,-0.777 0.601,-0.952 1.178,-0.952 0.677,0 1.028,0.451 1.028,1.128 0,0.251 -0.05,0.577 -0.126,1.003 l -2.431,14.34 c -0.226,1.254 -0.928,1.68 -1.73,1.68 -0.878,0 -1.354,-0.326 -1.605,-1.153 L 5.465,-11.357 H 5.415 L 1.605,1.705 C 1.354,2.532 0.877,2.858 0,2.858 c -0.802,0 -1.504,-0.426 -1.73,-1.68 l -2.432,-14.34 c -0.075,-0.426 -0.125,-0.752 -0.125,-1.003 0,-0.677 0.351,-1.128 1.028,-1.128 0.576,0 1.078,0.175 1.178,0.952 z"
         style="fill:#000000;fill-opacity:1;fill-rule:nonzero;stroke:none"
         id="path138" />
    </g>
  </g>
</svg>
