<?xml version="1.0" encoding="UTF-8" standalone="no"?>
<svg
   xmlns:dc="http://purl.org/dc/elements/1.1/"
   xmlns:cc="http://creativecommons.org/ns#"
   xmlns:rdf="http://www.w3.org/1999/02/22-rdf-syntax-ns#"
   xmlns:svg="http://www.w3.org/2000/svg"
   xmlns="http://www.w3.org/2000/svg"
   version="1.1"
   id="svg2"
   xml:space="preserve"
   width="379.29065"
   height="119.46546"
   viewBox="0 0 379.29064 119.46546"><metadata
     id="metadata8"><rdf:RDF><cc:Work
         rdf:about=""><dc:format>image/svg+xml</dc:format><dc:type
           rdf:resource="http://purl.org/dc/dcmitype/StillImage" /><dc:title></dc:title></cc:Work></rdf:RDF></metadata><defs
     id="defs6"><clipPath
       clipPathUnits="userSpaceOnUse"
       id="clipPath18"><path
         d="m 102,297 h 284.468 v 89.6 H 102 Z"
         id="path16" /></clipPath></defs><g
     style="fill:#ffffff"
     id="g10"
     transform="matrix(1.3333333,0,0,-1.3333333,-136,515.46545)"><g
       style="fill:#ffffff"
       id="g12"><g
         style="fill:#ffffff"
         id="g14"
         clip-path="url(#clipPath18)"><g
           style="fill:#ffffff"
           id="g20"
           transform="translate(102.0464,297.258)"><path
             d="M 0,0 H 19.629 V 2.683 H 3.953 l -0.045,0.102 9.72,10.628 c 3.86,4.281 5.581,7.737 5.581,11.863 0,6.554 -4.557,10.37 -9.442,10.37 -4.789,0 -8,-2.682 -9.674,-6.706 l 2.001,-1.444 c 1.487,3.559 4.138,5.468 7.533,5.468 4.141,0 6.979,-3.353 6.979,-7.945 0,-4.024 -2.326,-7.12 -5.165,-10.212 L -0.047,2.114 Z m 34.139,-0.258 c 7.583,0 11.721,7.737 11.721,17.9 0,11.763 -5.022,18.004 -11.721,18.004 -7.534,0 -11.721,-7.634 -11.721,-18.004 0,-11.606 5.024,-17.9 11.721,-17.9 m 0,2.736 c -5.207,0 -9.115,5.259 -9.115,15.164 0,9.131 3.256,15.322 9.115,15.322 5.257,0 9.117,-5.21 9.117,-15.322 0,-8.976 -3.208,-15.164 -9.117,-15.164 M 47.954,0 H 67.583 V 2.683 H 51.909 l -0.047,0.102 9.72,10.628 c 3.862,4.281 5.582,7.737 5.582,11.863 0,6.554 -4.558,10.37 -9.443,10.37 -4.79,0 -7.998,-2.682 -9.675,-6.706 l 2.002,-1.444 c 1.489,3.559 4.14,5.468 7.535,5.468 4.139,0 6.977,-3.353 6.977,-7.945 0,-4.024 -2.327,-7.12 -5.163,-10.212 L 47.909,2.114 Z m 29.071,0 h 2.557 v 35.441 h -2.186 l -8.604,-7.171 1.302,-2.115 6.931,5.778 z m 7.626,14.549 h 13.628 v 2.683 H 84.651 Z M 99.351,0 h 19.627 v 2.683 h -15.674 l -0.048,0.102 9.723,10.628 c 3.86,4.281 5.582,7.737 5.582,11.863 0,6.554 -4.561,10.37 -9.443,10.37 -4.792,0 -8,-2.682 -9.675,-6.706 l 1.999,-1.444 c 1.49,3.559 4.141,5.468 7.536,5.468 4.14,0 6.977,-3.353 6.977,-7.945 0,-4.024 -2.327,-7.12 -5.163,-10.212 L 99.304,2.114 Z m 34.139,-0.258 c 7.581,0 11.721,7.737 11.721,17.9 0,11.763 -5.023,18.004 -11.721,18.004 -7.536,0 -11.721,-7.634 -11.721,-18.004 0,-11.606 5.022,-17.9 11.721,-17.9 m 0,2.736 c -5.21,0 -9.117,5.259 -9.117,15.164 0,9.131 3.255,15.322 9.117,15.322 5.257,0 9.117,-5.21 9.117,-15.322 0,-8.976 -3.211,-15.164 -9.117,-15.164 M 147.305,0 h 19.627 v 2.683 h -15.674 l -0.048,0.102 9.722,10.628 c 3.861,4.281 5.582,7.737 5.582,11.863 0,6.554 -4.557,10.37 -9.442,10.37 -4.79,0 -8.001,-2.682 -9.675,-6.706 l 1.999,-1.444 c 1.489,3.559 4.141,5.468 7.536,5.468 4.14,0 6.976,-3.353 6.976,-7.945 0,-4.024 -2.324,-7.12 -5.162,-10.212 L 147.257,2.114 Z m 32.092,22.286 c -1.486,0 -3.673,-0.465 -5.534,-1.393 l 0.604,11.916 h 14.093 v 2.682 h -16.464 l -0.884,-17.384 1.674,-0.465 c 1.721,1.394 3.768,2.064 5.999,2.064 4.605,0 8.466,-3.042 8.466,-8.616 0,-5.054 -3.581,-8.665 -8.511,-8.665 -3.628,0 -6.652,1.959 -8.186,4.899 l -2.001,-1.493 c 1.954,-3.717 5.907,-6.089 10.327,-6.089 6.279,0 10.977,4.592 10.977,11.299 0,7.169 -4.746,11.245 -10.56,11.245"
             style="fill:#ffffff;fill-opacity:1;fill-rule:nonzero;stroke:none"
             id="path22" /></g><g
           style="fill:#ffffff"
           id="g24"
           transform="translate(104,348.6311)"><path
             d="m 0,0 h 6.466 v 12.537 h 5.116 c 7.255,0 12.14,3.868 12.14,11.916 0,7.014 -3.488,12.174 -11.489,12.174 H 0 Z m 6.466,18.933 v 11.246 h 4.743 c 3.768,0 5.722,-2.22 5.722,-5.623 0,-3.353 -1.954,-5.623 -6.047,-5.623 z M 27.723,0 h 6.094 v 37.968 h -6.094 z m 21.023,-0.466 c 2.976,0 5.254,1.239 6.837,3.508 L 55.675,2.993 V 0 h 5.814 v 25.227 h -6.092 v -2.891 l -0.094,-0.05 c -1.627,2.167 -4.046,3.301 -6.697,3.301 -6.094,0 -10.699,-5.416 -10.699,-13.05 0,-7.79 4.605,-13.003 10.839,-13.003 m 1.162,6.089 c -3.443,0 -5.814,2.837 -5.814,6.861 0,4.334 2.511,7.067 5.814,7.067 3.256,0 5.767,-2.993 5.767,-7.067 0,-4.126 -2.651,-6.861 -5.767,-6.861 M 77.953,0 h 22.095 V 6.448 H 84.419 v 8.564 H 96.14 v 6.345 H 84.419 v 8.822 h 14.652 v 6.448 H 77.953 Z m 33.676,-0.466 c 5.954,0 8.79,3.406 8.79,7.843 0,5.005 -2.883,6.191 -7.813,8.203 -2.233,0.928 -3.35,1.649 -3.35,2.682 0,1.342 1.209,1.857 2.141,1.857 1.674,0 3.72,-0.826 5.442,-2.682 l 2.976,5.004 c -2.604,2.217 -5.162,3.146 -8.278,3.146 -4.7,0 -8.233,-2.941 -8.233,-7.48 0,-4.902 3.256,-6.861 7.024,-8.253 2.928,-1.083 4.092,-1.651 4.092,-2.735 0,-1.239 -0.977,-2.064 -2.746,-2.064 -2.511,0 -4.465,0.981 -6.324,2.89 L 102.419,3.25 c 2.466,-2.375 5.582,-3.716 9.21,-3.716 m 19.442,0 c 3.069,0 4.558,0.723 5.999,1.602 l -1.534,5.415 c -1.024,-0.568 -2.139,-0.876 -2.883,-0.876 -1.442,0 -1.954,1.031 -1.954,3.248 v 10.681 h 6.139 v 5.623 h -6.139 v 8.923 l -6.094,-0.721 v -8.202 h -2.696 v -5.623 h 2.696 V 7.945 c 0,-5.675 2.559,-8.411 6.466,-8.411 M 140.141,0 h 6.092 v 11.658 c 0,3.819 2.001,6.604 5.769,6.604 0.373,0 0.977,0 1.627,-0.053 v 7.378 h -0.465 c -2.651,0 -5.117,-1.444 -6.836,-4.024 h -0.095 v 3.664 h -6.092 z m 25.442,-0.466 c 2.978,0 5.256,1.239 6.838,3.508 l 0.093,-0.049 V 0 h 5.814 v 25.227 h -6.094 v -2.891 l -0.093,-0.05 c -1.629,2.167 -4.047,3.301 -6.699,3.301 -6.091,0 -10.696,-5.416 -10.696,-13.05 0,-7.79 4.605,-13.003 10.837,-13.003 m 1.164,6.089 c -3.443,0 -5.814,2.837 -5.814,6.861 0,4.334 2.51,7.067 5.814,7.067 3.255,0 5.767,-2.993 5.767,-7.067 0,-4.126 -2.651,-6.861 -5.767,-6.861 m 23.487,-6.089 c 3.071,0 4.558,0.723 5.999,1.602 l -1.534,5.415 c -1.022,-0.568 -2.139,-0.876 -2.884,-0.876 -1.441,0 -1.953,1.031 -1.953,3.248 v 10.681 h 6.139 v 5.623 h -6.139 v 8.923 l -6.092,-0.721 v -8.202 h -2.699 v -5.623 h 2.699 V 7.945 c 0,-5.675 2.556,-8.411 6.464,-8.411 m 22.373,28.943 -5.023,7.48 -6.513,0.049 5.769,-7.529 z m 6.884,-15.632 c 0,7.377 -4.466,12.742 -10.885,12.742 -6.743,0 -11.533,-5.263 -11.533,-12.948 0,-7.892 4.929,-13.105 11.906,-13.105 5.069,0 8,2.065 9.907,4.8 l -3.953,4.074 c -1.209,-1.649 -2.978,-2.838 -5.535,-2.838 -3.07,0 -5.256,1.807 -6.001,4.85 h 15.954 c 0.047,0.413 0.14,1.599 0.14,2.425 m -10.929,6.861 c 2.65,0 4.277,-1.754 4.882,-4.436 h -10 c 0.698,2.89 2.651,4.436 5.118,4.436 m 24.976,-30.334 c 8.79,0 11.906,5.623 11.906,13.516 v 22.339 h -6.092 v -2.633 h -0.092 c -1.862,2.012 -4.328,2.993 -6.839,2.993 -6.046,0 -10.512,-5.313 -10.512,-12.742 0,-7.325 4.605,-12.38 10.837,-12.38 2.698,0 4.977,1.031 6.606,2.888 h 0.093 V 0.826 c 0,-2.993 -2.139,-5.573 -6.372,-5.573 -2.978,0 -5.164,0.981 -7.396,2.374 l -1.442,-5.728 c 2.699,-1.701 5.815,-2.527 9.303,-2.527 m 0.325,17.179 c -3.256,0 -5.767,2.528 -5.767,6.501 0,3.816 2.371,6.449 5.767,6.449 3.256,0 5.721,-2.58 5.721,-6.399 0,-3.816 -2.371,-6.551 -5.721,-6.551 m 19.861,22.078 c 2.187,0 3.86,1.86 3.86,4.18 0,2.269 -1.673,4.129 -3.86,4.129 -2.233,0 -3.86,-1.86 -3.86,-4.129 0,-2.32 1.627,-4.18 3.86,-4.18 M 250.608,0 h 6.094 v 25.227 h -6.094 z m 21.954,-0.466 c 4.837,0 7.953,1.91 9.907,4.592 l -3.953,4.232 c -1.21,-1.652 -3.024,-2.735 -5.35,-2.735 -3.628,0 -6.139,2.785 -6.139,6.964 0,4.126 2.464,6.964 6.139,6.964 2.139,0 4.001,-1.031 5.21,-2.683 l 4,4.179 c -2.374,3.096 -6.094,4.54 -9.629,4.54 -7.024,0 -11.907,-5.263 -11.907,-13.05 0,-7.74 4.931,-13.003 11.722,-13.003"
             style="fill:#ffffff;fill-opacity:1;fill-rule:nonzero;stroke:none"
             id="path26" /></g></g></g></g></svg>