<?xml version="1.0" encoding="UTF-8" standalone="no"?>
<svg
   xmlns:dc="http://purl.org/dc/elements/1.1/"
   xmlns:cc="http://creativecommons.org/ns#"
   xmlns:rdf="http://www.w3.org/1999/02/22-rdf-syntax-ns#"
   xmlns:svg="http://www.w3.org/2000/svg"
   xmlns="http://www.w3.org/2000/svg"
   viewBox="0 0 640 640"
   height="640"
   width="640"
   id="svg899"
   version="1.1">
  <metadata
     id="metadata905">
    <rdf:RDF>
      <cc:Work
         rdf:about="">
        <dc:format>image/svg+xml</dc:format>
        <dc:type
           rdf:resource="http://purl.org/dc/dcmitype/StillImage" />
        <dc:title></dc:title>
      </cc:Work>
    </rdf:RDF>
  </metadata>
  <defs
     id="defs903" />
  <g
     style="fill:#000000"
     transform="matrix(4.3095736,0,0,4.3095736,-708.45417,-2122.5787)"
     id="g2004">
    <g
       style="fill:#000000"
       id="g24"
       transform="matrix(1.3333333,0,0,-1.3333333,311.55337,591.90744)">
      <path
         d="m 0,0 c 0,-3.579 0.033,-7.158 -0.01,-10.736 -0.048,-3.957 -2.429,-6.427 -6.394,-6.464 -7.314,-0.068 -14.627,-0.069 -21.941,0.004 -3.849,0.038 -6.248,2.45 -6.286,6.322 -0.072,7.313 -0.073,14.627 -10e-4,21.939 0.04,3.942 2.543,6.338 6.499,6.357 7.236,0.036 14.472,0.041 21.706,-0.003 3.899,-0.023 6.368,-2.532 6.417,-6.449 C 0.035,7.314 0,3.657 0,0 m -32.351,0.142 c 0,-3.579 -0.038,-7.159 0.012,-10.737 0.04,-2.852 1.485,-4.295 4.356,-4.309 7.158,-0.037 14.317,-0.043 21.474,0.004 2.681,0.017 4.194,1.533 4.211,4.23 0.05,7.159 0.048,14.318 0.004,21.476 -0.018,2.796 -1.559,4.318 -4.377,4.334 -7.079,0.042 -14.16,0.039 -21.241,0.002 -2.959,-0.015 -4.398,-1.5 -4.431,-4.496 -0.038,-3.501 -0.009,-7.002 -0.008,-10.504"
         style="fill:#000000;fill-opacity:1;fill-rule:nonzero;stroke:none"
         id="path26" />
    </g>
    <g
       style="fill:#000000"
       id="g28"
       transform="matrix(1.3333333,0,0,-1.3333333,238.62377,564.89371)">
      <path
         d="m 0,0 c -3.657,0 -7.314,-0.04 -10.971,0.011 -3.778,0.053 -6.279,2.504 -6.31,6.304 -0.06,7.391 -0.065,14.783 0.004,22.173 0.032,3.575 2.444,6.082 5.994,6.125 7.546,0.092 15.094,0.094 22.639,-0.004 3.546,-0.046 5.925,-2.556 5.957,-6.158 C 17.38,21.061 17.38,13.669 17.315,6.278 17.282,2.492 14.766,0.06 10.97,0.01 7.313,-0.038 3.656,0 0,0 m -15.014,17.518 c 0,-3.579 -0.031,-7.159 0.009,-10.738 0.034,-2.986 1.486,-4.476 4.442,-4.491 7.003,-0.037 14.007,-0.031 21.01,-0.004 3.119,0.012 4.58,1.464 4.595,4.578 0.029,7.003 0.031,14.006 -0.003,21.01 -0.015,3.001 -1.456,4.451 -4.44,4.465 -7.081,0.034 -14.163,0.036 -21.245,-0.002 -2.862,-0.015 -4.314,-1.467 -4.356,-4.313 -0.051,-3.501 -0.012,-7.003 -0.012,-10.505"
         style="fill:#000000;fill-opacity:1;fill-rule:nonzero;stroke:none"
         id="path30" />
    </g>
    <g
       style="fill:#000000"
       id="g32"
       transform="matrix(1.3333333,0,0,-1.3333333,188.90764,568.66464)">
      <path
         d="m 0,0 c 3.657,-0.001 7.314,0.04 10.97,-0.013 3.69,-0.053 6.225,-2.423 6.272,-6.099 0.093,-7.467 0.093,-14.938 0.003,-22.406 -0.044,-3.697 -2.504,-6.072 -6.253,-6.109 -7.313,-0.073 -14.627,-0.071 -21.94,-0.006 -3.97,0.036 -6.39,2.502 -6.413,6.442 -0.042,7.236 -0.042,14.472 -10e-4,21.707 0.022,4.013 2.537,6.441 6.625,6.478 C -7.158,0.027 -3.579,0.001 0,0 m -15.094,-17.28 c 0,-3.58 -0.04,-7.16 0.012,-10.738 0.042,-2.821 1.528,-4.304 4.365,-4.318 7.159,-0.037 14.317,-0.041 21.476,0.004 2.699,0.017 4.184,1.509 4.202,4.221 0.045,7.159 0.042,14.318 0.002,21.476 -0.016,2.83 -1.513,4.327 -4.342,4.344 -7.081,0.041 -14.162,0.038 -21.243,0.002 -2.943,-0.015 -4.428,-1.531 -4.463,-4.487 -0.042,-3.501 -0.01,-7.003 -0.009,-10.504"
         style="fill:#000000;fill-opacity:1;fill-rule:nonzero;stroke:none"
         id="path34" />
    </g>
    <g
       style="fill:#000000"
       id="g36"
       transform="matrix(1.3333333,0,0,-1.3333333,261.7435,591.78504)">
      <path
         d="m 0,0 c 0,-3.579 0.036,-7.158 -0.01,-10.736 -0.052,-4.123 -2.407,-6.53 -6.531,-6.562 -7.235,-0.055 -14.471,-0.061 -21.706,0.006 -3.964,0.036 -6.355,2.485 -6.382,6.468 -0.049,7.235 -0.05,14.471 10e-4,21.706 0.028,3.947 2.502,6.422 6.409,6.446 7.235,0.043 14.471,0.04 21.706,0.002 4.039,-0.021 6.452,-2.485 6.504,-6.594 C 0.036,7.158 0,3.579 0,0 m -2.29,0.06 c 0,3.501 0.031,7.003 -0.009,10.504 -0.035,2.98 -1.491,4.471 -4.45,4.487 -7.08,0.036 -14.161,0.039 -21.242,-0.003 -2.828,-0.016 -4.331,-1.518 -4.348,-4.344 -0.042,-7.081 -0.038,-14.162 -0.004,-21.242 0.014,-2.995 1.463,-4.446 4.447,-4.461 7.003,-0.033 14.006,-0.029 21.009,-0.003 3.149,0.012 4.559,1.423 4.59,4.558 0.034,3.501 0.008,7.003 0.007,10.504"
         style="fill:#000000;fill-opacity:1;fill-rule:nonzero;stroke:none"
         id="path38" />
    </g>
    <g
       style="fill:#000000"
       id="g40"
       transform="matrix(1.3333333,0,0,-1.3333333,183.07617,597.82411)">
      <path
         d="m 0,0 h 8.247 l 1.15,-3.199 c 0.175,-0.475 0.474,-0.825 1.074,-0.825 0.575,0 1.05,0.35 1.05,0.925 0,0.3 -0.225,0.875 -0.3,1.1 L 5.698,12.72 c -0.275,0.775 -0.725,1.35 -1.574,1.35 -0.85,0 -1.3,-0.575 -1.575,-1.35 L -2.974,-1.999 c -0.075,-0.225 -0.3,-0.8 -0.3,-1.1 0,-0.575 0.475,-0.925 1.05,-0.925 0.6,0 0.899,0.35 1.074,0.825 z M 7.572,1.899 H 0.675 l 3.424,9.622 h 0.05 z"
         style="fill:#000000;fill-opacity:1;fill-rule:nonzero;stroke:none"
         id="path42" />
    </g>
    <g
       style="fill:#000000"
       id="g44"
       transform="matrix(1.3333333,0,0,-1.3333333,232.26177,549.72517)">
      <path
         d="m 0,0 h -0.049 l -2.275,13.924 c -0.122,0.709 -0.515,1.003 -1.175,1.003 -0.611,0 -0.979,-0.44 -0.979,-0.979 0,-0.269 0.025,-0.587 0.123,-1.101 L -1.713,-1.37 c 0.148,-0.759 0.465,-1.42 1.542,-1.42 0.832,0 1.347,0.221 1.689,1.42 L 5.091,11.403 H 5.14 L 8.711,-1.37 c 0.344,-1.199 0.857,-1.42 1.689,-1.42 1.078,0 1.396,0.661 1.542,1.42 l 2.642,14.217 c 0.099,0.514 0.123,0.832 0.123,1.101 0,0.539 -0.366,0.979 -0.978,0.979 -0.662,0 -1.052,-0.294 -1.175,-1.003 L 10.278,0 H 10.229 L 6.216,14.07 c -0.195,0.661 -0.563,0.857 -1.102,0.857 -0.538,0 -0.905,-0.196 -1.1,-0.857 z"
         style="fill:#000000;fill-opacity:1;fill-rule:nonzero;stroke:none"
         id="path46" />
    </g>
    <g
       style="fill:#000000"
       id="g48"
       transform="matrix(1.3333333,0,0,-1.3333333,280.80857,601.38917)">
      <path
         d="m 0,0 c 0,-0.675 0.35,-1.2 1.175,-1.2 h 4.623 c 4.773,0 7.597,3.674 7.597,8.997 0,4.699 -2.599,8.797 -7.897,8.797 H 1.175 C 0.35,16.594 0,16.069 0,15.395 Z m 2.199,14.695 h 2.999 c 4.198,0 5.848,-3.249 5.848,-6.898 C 11.046,4.174 9.497,0.7 5.348,0.7 H 2.199 Z"
         style="fill:#000000;fill-opacity:1;fill-rule:nonzero;stroke:none"
         id="path50" />
    </g>
    <g
       style="fill:#000000"
       id="g52"
       transform="matrix(1.3333333,0,0,-1.3333333,239.49097,579.06371)">
      <path
         d="m 0,0 c -3.3,0 -5.248,-2.499 -5.248,-4.573 0,-5.823 8.446,-3.774 8.446,-7.998 0,-1.974 -1.375,-3.623 -3.648,-3.623 -2.249,0 -3.299,1.374 -4.048,1.374 -0.625,0 -0.926,-0.525 -0.926,-1.124 0,-1.25 2.6,-2.15 4.948,-2.15 3.874,0 6.024,2.674 6.024,5.623 0,5.998 -8.447,4.124 -8.447,8.048 0,1.499 1.2,2.524 2.824,2.524 2.199,0 2.523,-1.15 3.499,-1.15 0.55,0 0.948,0.45 0.948,0.975 C 4.372,-0.925 2.198,0 0,0"
         style="fill:#000000;fill-opacity:1;fill-rule:nonzero;stroke:none"
         id="path54" />
    </g>
  </g>
</svg>
