{
    "asset" : {
        "generator" : "Khronos glTF Blender I/O v1.1.46",
        "version" : "2.0"
    },
    "scene" : 0,
    "scenes" : [
        {
            "name" : "Scene",
            "nodes" : [
                0,
                1,
                2,
                3,
                4,
                5,
                6,
                7
            ]
        }
    ],
    "nodes" : [
        {
            "mesh" : 0,
            "name" : "PieceAlone_1",
            "rotation" : [
                0.7071067690849304,
                0,
                0,
                0.7071067690849304
            ],
            "scale" : [
                0.009999999776482582,
                0.009999999776482582,
                0.009999999776482582
            ]
        },
        {
            "name" : "Light",
            "rotation" : [
                0.16907575726509094,
                0.7558803558349609,
                -0.27217137813568115,
                0.570947527885437
            ],
            "translation" : [
                4.076245307922363,
                5.903861999511719,
                -1.0054539442062378
            ]
        },
        {
            "name" : "Camera",
            "rotation" : [
                0.483536034822464,
                0.33687159419059753,
                -0.20870360732078552,
                0.7804827094078064
            ],
            "translation" : [
                7.358891487121582,
                4.958309173583984,
                6.925790786743164
            ]
        },
        {
            "mesh" : 1,
            "name" : "Cube",
            "scale" : [
                0.5,
                0.3330000042915344,
                0.5
            ],
            "translation" : [
                0,
                0.337503582239151,
                0
            ]
        },
        {
            "mesh" : 2,
            "name" : "Cylinder.002",
            "scale" : [
                0.16599999368190765,
                0.05000000074505806,
                0.16599999368190765
            ],
            "translation" : [
                -0.24860000610351562,
                0.7157806158065796,
                -0.24860000610351562
            ]
        },
        {
            "mesh" : 3,
            "name" : "Cylinder.001",
            "scale" : [
                0.16599999368190765,
                0.05000000074505806,
                0.16599999368190765
            ],
            "translation" : [
                0.24860000610351562,
                0.7157806158065796,
                -0.24860000610351562
            ]
        },
        {
            "mesh" : 4,
            "name" : "Cylinder.003",
            "scale" : [
                0.16599999368190765,
                0.05000000074505806,
                0.16599999368190765
            ],
            "translation" : [
                0.24860000610351562,
                0.7157806158065796,
                0.24860000610351562
            ]
        },
        {
            "mesh" : 5,
            "name" : "Cylinder.004",
            "scale" : [
                0.16599999368190765,
                0.05000000074505806,
                0.16599999368190765
            ],
            "translation" : [
                -0.24860000610351562,
                0.7157806158065796,
                0.24860000610351562
            ]
        }
    ],
    "materials" : [
        {
            "doubleSided" : true,
            "name" : "Material.001",
            "pbrMetallicRoughness" : {}
        }
    ],
    "meshes" : [
        {
            "name" : "Mesh.001",
            "primitives" : [
                {
                    "attributes" : {
                        "POSITION" : 0,
                        "NORMAL" : 1,
                        "TEXCOORD_0" : 2
                    },
                    "indices" : 3
                }
            ]
        },
        {
            "name" : "Cube.001",
            "primitives" : [
                {
                    "attributes" : {
                        "POSITION" : 4,
                        "NORMAL" : 5,
                        "TEXCOORD_0" : 6
                    },
                    "indices" : 7,
                    "material" : 0
                }
            ]
        },
        {
            "name" : "Cylinder.003",
            "primitives" : [
                {
                    "attributes" : {
                        "POSITION" : 8,
                        "NORMAL" : 9,
                        "TEXCOORD_0" : 10
                    },
                    "indices" : 11,
                    "material" : 0
                }
            ]
        },
        {
            "name" : "Cylinder.005",
            "primitives" : [
                {
                    "attributes" : {
                        "POSITION" : 12,
                        "NORMAL" : 13,
                        "TEXCOORD_0" : 14
                    },
                    "indices" : 11,
                    "material" : 0
                }
            ]
        },
        {
            "name" : "Cylinder.006",
            "primitives" : [
                {
                    "attributes" : {
                        "POSITION" : 15,
                        "NORMAL" : 16,
                        "TEXCOORD_0" : 17
                    },
                    "indices" : 11,
                    "material" : 0
                }
            ]
        },
        {
            "name" : "Cylinder.007",
            "primitives" : [
                {
                    "attributes" : {
                        "POSITION" : 18,
                        "NORMAL" : 19,
                        "TEXCOORD_0" : 20
                    },
                    "indices" : 11,
                    "material" : 0
                }
            ]
        }
    ],
    "accessors" : [
        {
            "bufferView" : 0,
            "componentType" : 5126,
            "count" : 49132,
            "max" : [
                7.959717273712158,
                7.959726333618164,
                -2.9713595505347675e-16
            ],
            "min" : [
                -7.959717273712158,
                -7.959726333618164,
                -11.380001068115234
            ],
            "type" : "VEC3"
        },
        {
            "bufferView" : 1,
            "componentType" : 5126,
            "count" : 49132,
            "type" : "VEC3"
        },
        {
            "bufferView" : 2,
            "componentType" : 5126,
            "count" : 49132,
            "type" : "VEC2"
        },
        {
            "bufferView" : 3,
            "componentType" : 5123,
            "count" : 281856,
            "type" : "SCALAR"
        },
        {
            "bufferView" : 4,
            "componentType" : 5126,
            "count" : 96,
            "max" : [
                1,
                1,
                1
            ],
            "min" : [
                -1,
                -1,
                -1
            ],
            "type" : "VEC3"
        },
        {
            "bufferView" : 5,
            "componentType" : 5126,
            "count" : 96,
            "type" : "VEC3"
        },
        {
            "bufferView" : 6,
            "componentType" : 5126,
            "count" : 96,
            "type" : "VEC2"
        },
        {
            "bufferView" : 7,
            "componentType" : 5123,
            "count" : 132,
            "type" : "SCALAR"
        },
        {
            "bufferView" : 8,
            "componentType" : 5126,
            "count" : 320,
            "max" : [
                1,
                1,
                1
            ],
            "min" : [
                -1,
                -1,
                -1
            ],
            "type" : "VEC3"
        },
        {
            "bufferView" : 9,
            "componentType" : 5126,
            "count" : 320,
            "type" : "VEC3"
        },
        {
            "bufferView" : 10,
            "componentType" : 5126,
            "count" : 320,
            "type" : "VEC2"
        },
        {
            "bufferView" : 11,
            "componentType" : 5123,
            "count" : 564,
            "type" : "SCALAR"
        },
        {
            "bufferView" : 12,
            "componentType" : 5126,
            "count" : 320,
            "max" : [
                1,
                1,
                1
            ],
            "min" : [
                -1,
                -1,
                -1
            ],
            "type" : "VEC3"
        },
        {
            "bufferView" : 13,
            "componentType" : 5126,
            "count" : 320,
            "type" : "VEC3"
        },
        {
            "bufferView" : 14,
            "componentType" : 5126,
            "count" : 320,
            "type" : "VEC2"
        },
        {
            "bufferView" : 15,
            "componentType" : 5126,
            "count" : 320,
            "max" : [
                1,
                1,
                1
            ],
            "min" : [
                -1,
                -1,
                -1
            ],
            "type" : "VEC3"
        },
        {
            "bufferView" : 16,
            "componentType" : 5126,
            "count" : 320,
            "type" : "VEC3"
        },
        {
            "bufferView" : 17,
            "componentType" : 5126,
            "count" : 320,
            "type" : "VEC2"
        },
        {
            "bufferView" : 18,
            "componentType" : 5126,
            "count" : 320,
            "max" : [
                1,
                1,
                1
            ],
            "min" : [
                -1,
                -1,
                -1
            ],
            "type" : "VEC3"
        },
        {
            "bufferView" : 19,
            "componentType" : 5126,
            "count" : 320,
            "type" : "VEC3"
        },
        {
            "bufferView" : 20,
            "componentType" : 5126,
            "count" : 320,
            "type" : "VEC2"
        }
    ],
    "bufferViews" : [
        {
            "buffer" : 0,
            "byteLength" : 589584,
            "byteOffset" : 0
        },
        {
            "buffer" : 0,
            "byteLength" : 589584,
            "byteOffset" : 589584
        },
        {
            "buffer" : 0,
            "byteLength" : 393056,
            "byteOffset" : 1179168
        },
        {
            "buffer" : 0,
            "byteLength" : 563712,
            "byteOffset" : 1572224
        },
        {
            "buffer" : 0,
            "byteLength" : 1152,
            "byteOffset" : 2135936
        },
        {
            "buffer" : 0,
            "byteLength" : 1152,
            "byteOffset" : 2137088
        },
        {
            "buffer" : 0,
            "byteLength" : 768,
            "byteOffset" : 2138240
        },
        {
            "buffer" : 0,
            "byteLength" : 264,
            "byteOffset" : 2139008
        },
        {
            "buffer" : 0,
            "byteLength" : 3840,
            "byteOffset" : 2139272
        },
        {
            "buffer" : 0,
            "byteLength" : 3840,
            "byteOffset" : 2143112
        },
        {
            "buffer" : 0,
            "byteLength" : 2560,
            "byteOffset" : 2146952
        },
        {
            "buffer" : 0,
            "byteLength" : 1128,
            "byteOffset" : 2149512
        },
        {
            "buffer" : 0,
            "byteLength" : 3840,
            "byteOffset" : 2150640
        },
        {
            "buffer" : 0,
            "byteLength" : 3840,
            "byteOffset" : 2154480
        },
        {
            "buffer" : 0,
            "byteLength" : 2560,
            "byteOffset" : 2158320
        },
        {
            "buffer" : 0,
            "byteLength" : 3840,
            "byteOffset" : 2160880
        },
        {
            "buffer" : 0,
            "byteLength" : 3840,
            "byteOffset" : 2164720
        },
        {
            "buffer" : 0,
            "byteLength" : 2560,
            "byteOffset" : 2168560
        },
        {
            "buffer" : 0,
            "byteLength" : 3840,
            "byteOffset" : 2171120
        },
        {
            "buffer" : 0,
            "byteLength" : 3840,
            "byteOffset" : 2174960
        },
        {
            "buffer" : 0,
            "byteLength" : 2560,
            "byteOffset" : 2178800
        }
    ],
    "buffers" : [
        {
            "byteLength" : 2181360,
            "uri" : "data:application/octet-stream;base64,"
        }
    ]
}
