<?xml version="1.0" encoding="UTF-8" standalone="no"?>
<svg
   xmlns:dc="http://purl.org/dc/elements/1.1/"
   xmlns:cc="http://creativecommons.org/ns#"
   xmlns:rdf="http://www.w3.org/1999/02/22-rdf-syntax-ns#"
   xmlns:svg="http://www.w3.org/2000/svg"
   xmlns="http://www.w3.org/2000/svg"
   version="1.1"
   id="svg899"
   width="640"
   height="640"
   viewBox="0 0 640 640">
  <metadata
     id="metadata905">
    <rdf:RDF>
      <cc:Work
         rdf:about="">
        <dc:format>image/svg+xml</dc:format>
        <dc:type
           rdf:resource="http://purl.org/dc/dcmitype/StillImage" />
        <dc:title></dc:title>
      </cc:Work>
    </rdf:RDF>
  </metadata>
  <defs
     id="defs903" />
  <g
     transform="translate(22.34556,-33.55761)"
     id="g4597">
    <path
       id="path909"
       d="m 252.6278,638.70129 c -56.52727,-6.36672 -106.00913,-41.49153 -129.63955,-92.02496 -6.59158,-14.09601 -9.46055,-22.58364 -12.91754,-38.21548 l -2.73738,-12.37792 V 354.08788 c 0,-131.30462 0.15984,-142.80358 2.12312,-152.73418 3.17717,-16.07078 7.37211,-28.24668 15.2108,-44.14972 22.39276,-45.43018 64.62006,-77.150835 116.30849,-87.369581 9.20338,-1.819498 17.394,-2.118565 57.27532,-2.091312 43.98316,0.03006 47.22172,0.181551 59.0319,2.761388 31.98823,6.987565 57.73721,20.383635 80.11808,41.681935 24.562,23.37393 40.11659,51.49182 47.88212,86.556 l 2.69239,12.15718 v 142.59167 142.59167 l -2.69239,12.15718 c -7.15621,32.3129 -20.59656,58.19356 -41.78273,80.45661 -23.24162,24.42296 -51.69756,40.22004 -85.94675,47.71263 -10.35171,2.2646 -16.04403,2.57048 -53.93306,2.89805 -23.29793,0.20141 -46.2447,-0.0713 -50.99282,-0.60611 z m 97.7653,-19.74835 c 29.91704,-5.23325 54.79563,-18.3023 76.87875,-40.3854 22.16687,-22.1669 35.11621,-46.97682 40.50715,-77.60856 2.61239,-14.8439 2.50295,-280.66061 -0.12174,-295.66524 C 462.424,175.37669 449.35496,150.4981 427.27185,128.41499 408.16344,109.30657 387.98181,97.610356 361.12329,90.078724 L 349.5602,86.836218 h -51.90576 -51.90576 l -11.46291,3.21648 c -26.80588,7.521696 -47.24192,19.355472 -66.24874,38.362292 -19.09473,19.09474 -30.7626,39.21874 -38.35284,66.14857 l -3.25908,11.56308 v 147.36462 147.36462 l 3.25908,11.56308 c 7.59024,26.92984 19.25811,47.05383 38.35284,66.14858 21.76434,21.76433 46.69169,34.93014 76.51842,40.41451 12.9069,2.37324 92.22874,2.35143 105.83765,-0.0291 z M 289.47692,304.52846 c -10.70569,-2.20675 -21.76258,-11.4631 -26.85907,-22.4853 -2.43425,-5.26455 -2.55034,-7.22649 -2.55034,-43.10254 V 201.3537 l 3.30583,-6.73165 c 3.87579,-7.89229 11.89996,-15.72112 19.75265,-19.27179 7.63701,-3.45316 21.24594,-3.43409 29.0569,0.0407 7.81758,3.47774 15.86316,11.31088 19.75265,19.23107 l 3.30583,6.73166 v 37.58692 37.58693 l -3.30583,6.73165 c -3.79767,7.73322 -11.92918,15.76779 -19.15604,18.9277 -6.21245,2.71638 -16.47927,3.74803 -23.30258,2.34156 z m 17.81686,-20.57158 c 2.21435,-1.49224 5.24702,-4.52491 6.73925,-6.73926 2.66556,-3.95541 2.71318,-4.62724 2.71318,-38.277 0,-33.64975 -0.0476,-34.32158 -2.71318,-38.27699 -8.55585,-12.69602 -24.20133,-12.69602 -32.75718,0 -2.66556,3.95541 -2.71318,4.62724 -2.71318,38.27699 0,33.64976 0.0476,34.32159 2.71318,38.277 4.16757,6.18429 9.83044,9.45243 16.37859,9.45243 3.86265,0 6.86888,-0.84615 9.63934,-2.71317 z"
       style="fill:#000000;stroke-width:1.19323587" />
    <path
       id="path930"
       d="m 301.63804,341.38108 -178.7072,-0.56813 c 0,0 -0.97418,-45.77957 -0.97418,-83.64504 0,-31.5576 -7.52719,-60.02071 36.60465,-122.21997 C 202.06768,73.630207 278.86944,73.893509 301.63804,73.893508 V 183.37897 c -8.50476,-0.11083 -24.05414,-0.01 -29.45043,21.07231 -3.36499,13.14619 -2.95673,49.6021 -1.89757,55.95397 -0.16639,27.14769 14.62826,36.623 31.348,38.33132 z"
       style="fill:#000000;stroke-width:0.89976698" />
  </g>
</svg>
