<?xml version="1.0" encoding="UTF-8" standalone="no"?>
<svg
   xmlns:dc="http://purl.org/dc/elements/1.1/"
   xmlns:cc="http://creativecommons.org/ns#"
   xmlns:rdf="http://www.w3.org/1999/02/22-rdf-syntax-ns#"
   xmlns:svg="http://www.w3.org/2000/svg"
   xmlns="http://www.w3.org/2000/svg"
   viewBox="0 0 640 640"
   height="640"
   width="640"
   id="svg899"
   version="1.1">
  <metadata
     id="metadata905">
    <rdf:RDF>
      <cc:Work
         rdf:about="">
        <dc:format>image/svg+xml</dc:format>
        <dc:type
           rdf:resource="http://purl.org/dc/dcmitype/StillImage" />
        <dc:title></dc:title>
      </cc:Work>
    </rdf:RDF>
  </metadata>
  <defs
     id="defs903" />
  <g
     style="fill:#000000"
     id="g2177"
     transform="matrix(5.4535249,0,0,-5.4535249,-2048.585,2355.1292)">
    <g
       style="fill:#000000"
       id="g56"
       transform="translate(492.2266,353.405)">
      <path
         d="m 0,0 c 0,-3.79 0.036,-7.58 -0.011,-11.37 -0.051,-4.19 -2.571,-6.805 -6.771,-6.844 -7.744,-0.072 -15.489,-0.074 -23.234,0.003 -4.076,0.041 -6.616,2.595 -6.656,6.696 -0.077,7.744 -0.079,15.489 -0.001,23.233 0.042,4.174 2.693,6.711 6.882,6.732 7.662,0.037 15.325,0.043 22.985,-0.003 4.128,-0.026 6.744,-2.682 6.795,-6.83 C 0.038,7.745 0,3.872 0,0 m -34.258,0.151 c 0,-3.791 -0.04,-7.582 0.013,-11.371 0.042,-3.02 1.572,-4.548 4.612,-4.563 7.579,-0.039 15.16,-0.045 22.74,0.004 2.838,0.018 4.442,1.624 4.46,4.48 0.052,7.581 0.05,15.162 0.003,22.742 -0.018,2.962 -1.65,4.573 -4.633,4.59 -7.499,0.044 -14.998,0.041 -22.496,0.002 -3.132,-0.016 -4.655,-1.589 -4.69,-4.761 C -34.29,7.567 -34.26,3.859 -34.258,0.151"
         style="fill:#000000;fill-opacity:1;fill-rule:nonzero;stroke:none"
         id="path58" />
    </g>
    <g
       style="fill:#000000"
       id="g60"
       transform="translate(434.3037,374.8601)">
      <path
         d="m 0,0 c -3.872,0 -7.745,-0.042 -11.617,0.012 -4.002,0.056 -6.651,2.651 -6.683,6.675 -0.064,7.827 -0.068,15.655 0.004,23.481 0.035,3.786 2.589,6.44 6.348,6.486 7.991,0.098 15.984,0.1 23.973,-0.004 3.756,-0.049 6.276,-2.707 6.31,-6.521 0.07,-7.826 0.07,-15.654 0.002,-23.481 C 18.303,2.639 15.636,0.063 11.617,0.011 7.745,-0.04 3.872,0 0,0 m -15.899,18.551 c 0,-3.79 -0.032,-7.581 0.01,-11.371 0.036,-3.163 1.574,-4.74 4.703,-4.756 7.417,-0.039 14.833,-0.033 22.249,-0.004 3.305,0.013 4.851,1.55 4.866,4.847 0.032,7.417 0.034,14.833 -0.002,22.249 -0.016,3.179 -1.543,4.714 -4.703,4.729 -7.499,0.036 -14.998,0.038 -22.496,-0.002 -3.032,-0.016 -4.569,-1.554 -4.613,-4.568 -0.054,-3.707 -0.013,-7.416 -0.014,-11.124"
         style="fill:#000000;fill-opacity:1;fill-rule:nonzero;stroke:none"
         id="path62" />
    </g>
    <g
       style="fill:#000000"
       id="g64"
       transform="translate(394.8179,371.865)">
      <path
         d="m 0,0 c 3.872,-0.001 7.745,0.042 11.617,-0.014 3.908,-0.056 6.592,-2.566 6.641,-6.458 0.1,-7.908 0.099,-15.819 0.004,-23.727 -0.047,-3.916 -2.652,-6.431 -6.622,-6.47 -7.744,-0.078 -15.49,-0.075 -23.234,-0.006 -4.204,0.037 -6.767,2.649 -6.791,6.822 -0.045,7.662 -0.044,15.325 -10e-4,22.987 0.024,4.25 2.687,6.82 7.016,6.86 C -7.58,0.029 -3.79,0.001 0,0 m -15.985,-18.299 c 0,-3.791 -0.042,-7.582 0.014,-11.371 0.044,-2.987 1.618,-4.558 4.622,-4.573 7.581,-0.039 15.162,-0.044 22.742,0.005 2.858,0.018 4.431,1.597 4.45,4.47 0.048,7.58 0.045,15.161 0.002,22.742 -0.017,2.996 -1.602,4.582 -4.598,4.599 -7.498,0.044 -14.997,0.042 -22.495,0.003 -3.117,-0.016 -4.69,-1.621 -4.727,-4.752 -0.044,-3.707 -0.01,-7.415 -0.01,-11.123"
         style="fill:#000000;fill-opacity:1;fill-rule:nonzero;stroke:none"
         id="path66" />
    </g>
    <g
       style="fill:#000000"
       id="g68"
       transform="translate(452.666,353.5022)">
      <path
         d="m 0,0 c 0,-3.79 0.038,-7.58 -0.01,-11.369 -0.055,-4.366 -2.549,-6.915 -6.917,-6.949 -7.662,-0.059 -15.324,-0.065 -22.985,0.006 -4.198,0.039 -6.731,2.631 -6.758,6.85 -0.053,7.662 -0.055,15.324 0.001,22.986 0.028,4.179 2.648,6.801 6.786,6.825 7.662,0.046 15.324,0.043 22.987,0.003 4.277,-0.023 6.833,-2.632 6.886,-6.983 C 0.038,7.58 0,3.79 0,0 m -2.425,0.064 c 0,3.708 0.033,7.416 -0.01,11.123 -0.037,3.156 -1.579,4.735 -4.711,4.751 -7.499,0.039 -14.997,0.042 -22.495,-0.002 -2.995,-0.018 -4.587,-1.608 -4.605,-4.601 -0.045,-7.498 -0.04,-14.997 -0.004,-22.495 0.016,-3.171 1.549,-4.708 4.71,-4.723 7.415,-0.036 14.831,-0.032 22.247,-0.003 3.336,0.012 4.828,1.506 4.86,4.826 0.037,3.707 0.009,7.416 0.008,11.124"
         style="fill:#000000;fill-opacity:1;fill-rule:nonzero;stroke:none"
         id="path70" />
    </g>
    <g
       style="fill:#000000"
       id="g72"
       transform="translate(434.4463,384.3142)">
      <path
         d="M 0,0 C -0.762,0 -1.379,0.617 -1.379,1.378 V 15.92 c 0,0.762 0.617,1.379 1.379,1.379 0.762,0 1.379,-0.617 1.379,-1.379 V 1.378 C 1.379,0.617 0.762,0 0,0"
         style="fill:#000000;fill-opacity:1;fill-rule:nonzero;stroke:none"
         id="path74" />
    </g>
    <g
       style="fill:#000000"
       id="g76"
       transform="translate(439.9268,392.9616)">
      <path
         d="M 0,0 C -0.369,0 -0.738,0.147 -1.01,0.44 L -5.48,5.249 -9.951,0.44 c -0.52,-0.557 -1.391,-0.589 -1.948,-0.071 -0.558,0.518 -0.59,1.39 -0.072,1.948 l 5.481,5.895 c 0.521,0.561 1.498,0.561 2.019,0 L 1.01,2.317 C 1.528,1.759 1.496,0.887 0.938,0.369 0.673,0.122 0.336,0 0,0"
         style="fill:#000000;fill-opacity:1;fill-rule:nonzero;stroke:none"
         id="path78" />
    </g>
    <g
       style="fill:#000000"
       id="g80"
       transform="translate(434.4463,345.4973)">
      <path
         d="M 0,0 C -0.762,0 -1.379,0.617 -1.379,1.378 V 15.92 c 0,0.762 0.617,1.379 1.379,1.379 0.762,0 1.379,-0.617 1.379,-1.379 V 1.378 C 1.379,0.617 0.762,0 0,0"
         style="fill:#000000;fill-opacity:1;fill-rule:nonzero;stroke:none"
         id="path82" />
    </g>
    <g
       style="fill:#000000"
       id="g84"
       transform="translate(434.4463,345.4968)">
      <path
         d="m 0,0 c -0.383,0 -0.749,0.159 -1.01,0.44 l -5.48,5.895 c -0.519,0.558 -0.487,1.43 0.071,1.948 0.558,0.518 1.43,0.487 1.948,-0.071 L 0,3.403 4.471,8.212 C 4.989,8.77 5.861,8.801 6.419,8.283 6.977,7.765 7.009,6.893 6.49,6.335 L 1.01,0.44 C 0.749,0.159 0.383,0 0,0"
         style="fill:#000000;fill-opacity:1;fill-rule:nonzero;stroke:none"
         id="path86" />
    </g>
    <g
       style="fill:#000000"
       id="g88"
       transform="translate(401.7202,351.7737)">
      <path
         d="m 0,0 h -14.542 c -0.761,0 -1.378,0.617 -1.378,1.378 0,0.762 0.617,1.379 1.378,1.379 L 0,2.757 C 0.761,2.757 1.378,2.14 1.378,1.378 1.378,0.617 0.761,0 0,0"
         style="fill:#000000;fill-opacity:1;fill-rule:nonzero;stroke:none"
         id="path90" />
    </g>
    <g
       style="fill:#000000"
       id="g92"
       transform="translate(393.0723,346.2932)">
      <path
         d="m 0,0 c -0.336,0 -0.672,0.122 -0.938,0.369 l -5.895,5.48 c -0.281,0.26 -0.44,0.626 -0.44,1.009 0,0.383 0.159,0.749 0.44,1.01 l 5.895,5.481 C -0.38,13.866 0.492,13.836 1.01,13.278 1.528,12.72 1.497,11.848 0.939,11.33 L -3.87,6.858 0.939,2.388 C 1.497,1.87 1.528,0.998 1.01,0.44 0.739,0.148 0.37,0 0,0"
         style="fill:#000000;fill-opacity:1;fill-rule:nonzero;stroke:none"
         id="path94" />
    </g>
    <g
       style="fill:#000000"
       id="g96"
       transform="translate(481.2949,352.445)">
      <path
         d="m 0,0 h -14.542 c -0.762,0 -1.379,0.617 -1.379,1.378 0,0.762 0.617,1.379 1.379,1.379 L 0,2.757 C 0.762,2.757 1.379,2.14 1.379,1.378 1.379,0.617 0.762,0 0,0"
         style="fill:#000000;fill-opacity:1;fill-rule:nonzero;stroke:none"
         id="path98" />
    </g>
    <g
       style="fill:#000000"
       id="g100"
       transform="translate(475.4004,346.9646)">
      <path
         d="m 0,0 c -0.369,0 -0.738,0.147 -1.01,0.44 -0.518,0.558 -0.486,1.43 0.072,1.948 l 4.808,4.47 -4.808,4.473 c -0.558,0.518 -0.59,1.39 -0.072,1.948 0.52,0.557 1.391,0.589 1.948,0.07 L 6.833,7.868 c 0.28,-0.261 0.44,-0.627 0.44,-1.01 0,-0.383 -0.16,-0.749 -0.44,-1.009 L 0.938,0.369 C 0.673,0.122 0.336,0 0,0"
         style="fill:#000000;fill-opacity:1;fill-rule:nonzero;stroke:none"
         id="path102" />
    </g>
  </g>
</svg>
