<?xml version="1.0" encoding="UTF-8" standalone="no"?>
<svg
   xmlns:dc="http://purl.org/dc/elements/1.1/"
   xmlns:cc="http://creativecommons.org/ns#"
   xmlns:rdf="http://www.w3.org/1999/02/22-rdf-syntax-ns#"
   xmlns:svg="http://www.w3.org/2000/svg"
   xmlns="http://www.w3.org/2000/svg"
   viewBox="0 0 640 640"
   height="640"
   width="640"
   id="svg899"
   version="1.1">
  <metadata
     id="metadata905">
    <rdf:RDF>
      <cc:Work
         rdf:about="">
        <dc:format>image/svg+xml</dc:format>
        <dc:type
           rdf:resource="http://purl.org/dc/dcmitype/StillImage" />
        <dc:title></dc:title>
      </cc:Work>
    </rdf:RDF>
  </metadata>
  <defs
     id="defs903" />
  <g
     style="fill:#000000"
     id="g981"
     transform="matrix(7.5570903,0,0,-7.5570903,-1691.81,4072.6289)">
    <g
       style="fill:#000000"
       transform="translate(7.5812011,-8.1510184)"
       id="g2344">
      <g
         style="fill:#000000"
         id="g108"
         transform="matrix(0.96381095,0,0,0.96381095,223.5876,501.00565)">
        <path
           d="m 0,0 c -0.526,-0.008 -3.194,-0.196 -3.194,-3.195 v -23.191 c 0.007,-0.526 0.195,-3.195 3.194,-3.195 h 72.724 c 0.526,0.008 3.195,0.196 3.195,3.195 v 60.483 c -0.008,0.526 -0.196,3.195 -3.195,3.195 H 31.943 C 31.417,37.284 28.749,37.096 28.749,34.097 V 0 Z M 72.724,-32.241 H 0 c -4.296,0 -5.855,3.502 -5.855,5.855 v 23.191 c 0,4.296 3.501,5.855 5.855,5.855 h 26.087 v 31.437 c 0,4.296 3.502,5.855 5.856,5.855 h 40.781 c 4.296,0 5.855,-3.502 5.855,-5.855 v -60.483 c 0,-4.296 -3.502,-5.855 -5.855,-5.855"
           style="fill:#000000;fill-opacity:1;fill-rule:nonzero;stroke:none"
           id="path110" />
      </g>
      <path
         d="m 288.18829,483.96955 h -20.48001 c -0.70747,0 -1.28188,0.5744 -1.28188,1.28188 0,0.70742 0.57441,1.28188 1.28188,1.28188 h 19.19813 v 12.02062 c 0,0.70742 0.57446,1.28188 1.28188,1.28188 0.70742,0 1.28188,-0.57446 1.28188,-1.28188 v -13.3025 c 0,-0.70748 -0.57446,-1.28188 -1.28188,-1.28188"
         style="fill:#000000;fill-opacity:1;fill-rule:nonzero;stroke:none;stroke-width:0.96381098"
         id="path114" />
      <g
         style="fill:#000000"
         id="g120"
         transform="matrix(0.96381095,0,0,0.96381095,229.19069,486.79136)">
        <path
           d="M 0,0 H 3.081 C 3.48,0 3.767,0.206 3.767,0.653 3.767,1.1 3.48,1.307 3.081,1.307 H 0 v 3.721 h 3.384 c 0.399,0 0.687,0.207 0.687,0.654 0,0.446 -0.288,0.654 -0.687,0.654 h -4.038 c -0.526,0 -0.749,-0.335 -0.749,-0.766 v -9.834 c 0,-0.43 0.223,-0.765 0.749,-0.765 h 4.038 c 0.399,0 0.687,0.208 0.687,0.654 0,0.445 -0.288,0.652 -0.687,0.652 H 0 Z m 5.685,-4.374 c 0,-0.464 0.271,-0.75 0.701,-0.75 0.431,0 0.702,0.286 0.702,0.75 v 4.629 c 0,1.484 1.038,2.092 1.964,2.092 0.927,0 1.965,-0.608 1.965,-2.092 v -4.629 c 0,-0.464 0.271,-0.75 0.701,-0.75 0.431,0 0.702,0.286 0.702,0.75 v 4.709 c 0,2.394 -1.643,3.223 -2.953,3.223 -0.846,0 -1.725,-0.32 -2.347,-1.117 L 7.088,2.474 v 0.335 c 0,0.462 -0.271,0.749 -0.702,0.749 -0.43,0 -0.701,-0.287 -0.701,-0.749 z m 9.035,7.836 h -0.574 c -0.463,0 -0.703,-0.224 -0.703,-0.606 0,-0.382 0.24,-0.605 0.703,-0.605 h 0.574 v -6.625 c 0,-0.464 0.271,-0.75 0.702,-0.75 0.43,0 0.701,0.286 0.701,0.75 v 6.625 h 0.575 c 0.463,0 0.702,0.223 0.702,0.605 0,0.382 -0.239,0.606 -0.702,0.606 h -0.575 v 1.836 c 0,0.463 -0.271,0.75 -0.701,0.75 -0.431,0 -0.702,-0.287 -0.702,-0.75 z m 9.881,-4.787 c 0.606,0 0.781,0.255 0.781,0.749 0,2.044 -1.339,4.134 -3.655,4.134 -2.379,0 -3.814,-2.042 -3.814,-4.341 0,-2.251 1.179,-4.341 3.894,-4.341 1.661,0 3.4,1.052 3.4,1.737 0,0.401 -0.256,0.623 -0.511,0.623 -0.526,0 -1.004,-1.149 -2.873,-1.149 -1.581,0 -2.507,1.134 -2.507,2.588 z m -5.285,1.052 c 0.048,1.294 0.67,2.682 2.411,2.62 1.549,0 2.252,-1.407 2.252,-2.62 z m 7.409,-4.101 c 0,-0.464 0.271,-0.75 0.701,-0.75 0.43,0 0.701,0.286 0.701,0.75 v 4.037 c 0,1.646 1.022,2.269 1.852,2.411 0.591,0.113 0.878,0.367 0.878,0.767 0,0.397 -0.287,0.717 -0.782,0.717 -0.814,0 -1.596,-0.814 -1.916,-1.467 h -0.032 v 0.718 c 0,0.462 -0.271,0.749 -0.701,0.749 -0.43,0 -0.701,-0.287 -0.701,-0.749 z"
           style="fill:#000000;fill-opacity:1;fill-rule:nonzero;stroke:none"
           id="path122" />
      </g>
    </g>
  </g>
</svg>
