<?xml version="1.0" encoding="UTF-8" standalone="no"?>
<svg
   xmlns:dc="http://purl.org/dc/elements/1.1/"
   xmlns:cc="http://creativecommons.org/ns#"
   xmlns:rdf="http://www.w3.org/1999/02/22-rdf-syntax-ns#"
   xmlns:svg="http://www.w3.org/2000/svg"
   xmlns="http://www.w3.org/2000/svg"
   viewBox="0 0 640 640"
   height="640"
   width="640"
   id="svg899"
   version="1.1">
  <metadata
     id="metadata905">
    <rdf:RDF>
      <cc:Work
         rdf:about="">
        <dc:format>image/svg+xml</dc:format>
        <dc:type
           rdf:resource="http://purl.org/dc/dcmitype/StillImage" />
        <dc:title></dc:title>
      </cc:Work>
    </rdf:RDF>
  </metadata>
  <defs
     id="defs903" />
  <g
     style="fill:#000000"
     id="g1796"
     transform="matrix(15.066932,0,0,-15.066932,-3691.0206,5677.6185)">
    <g
       style="fill:#000000"
       id="g140"
       transform="translate(266.1958,337.8288)">
      <path
         d="m 0,0 c -3.746,0 -7.493,-0.041 -11.239,0.011 -3.872,0.054 -6.435,2.566 -6.466,6.459 -0.062,7.572 -0.066,15.145 0.004,22.717 0.034,3.663 2.504,6.231 6.141,6.275 7.731,0.095 15.465,0.097 23.195,-0.004 3.633,-0.047 6.071,-2.619 6.104,-6.309 C 17.807,21.577 17.806,14.004 17.741,6.432 17.707,2.553 15.128,0.061 11.239,0.01 7.493,-0.039 3.746,0 0,0 m -15.382,17.948 c 0,-3.667 -0.031,-7.335 0.01,-11.002 0.034,-3.059 1.523,-4.586 4.551,-4.601 7.175,-0.037 14.35,-0.032 21.525,-0.004 3.196,0.013 4.693,1.5 4.707,4.69 0.031,7.175 0.033,14.35 -0.002,21.525 -0.015,3.076 -1.493,4.561 -4.55,4.576 -7.255,0.034 -14.51,0.036 -21.765,-0.002 -2.933,-0.016 -4.42,-1.504 -4.463,-4.42 -0.052,-3.586 -0.012,-7.175 -0.013,-10.762"
         style="fill:#000000;fill-opacity:1;fill-rule:nonzero;stroke:none"
         id="path142" />
    </g>
    <g
       style="fill:#000000"
       id="g144"
       transform="translate(261.8472,354.7741)">
      <path
         d="m 0,0 h 9.402 v -6.819 c 0,-0.878 0.426,-1.329 1.103,-1.329 0.677,0 1.103,0.451 1.103,1.329 V 8.674 c 0,0.878 -0.426,1.329 -1.103,1.329 -0.677,0 -1.103,-0.451 -1.103,-1.329 V 1.905 H 0 v 6.769 c 0,0.878 -0.426,1.329 -1.103,1.329 -0.677,0 -1.103,-0.451 -1.103,-1.329 V -6.819 c 0,-0.878 0.426,-1.329 1.103,-1.329 0.677,0 1.103,0.451 1.103,1.329 z"
         style="fill:#000000;fill-opacity:1;fill-rule:nonzero;stroke:none"
         id="path146" />
    </g>
  </g>
</svg>
