<?xml version="1.0" encoding="UTF-8" standalone="no"?>
<svg
   xmlns:dc="http://purl.org/dc/elements/1.1/"
   xmlns:cc="http://creativecommons.org/ns#"
   xmlns:rdf="http://www.w3.org/1999/02/22-rdf-syntax-ns#"
   xmlns:svg="http://www.w3.org/2000/svg"
   xmlns="http://www.w3.org/2000/svg"
   viewBox="0 0 640 640"
   height="640"
   width="640"
   id="svg899"
   version="1.1">
  <metadata
     id="metadata905">
    <rdf:RDF>
      <cc:Work
         rdf:about="">
        <dc:format>image/svg+xml</dc:format>
        <dc:type
           rdf:resource="http://purl.org/dc/dcmitype/StillImage" />
        <dc:title></dc:title>
      </cc:Work>
    </rdf:RDF>
  </metadata>
  <defs
     id="defs903" />
  <g
     style="fill:#000000"
     id="g981"
     transform="matrix(7.5570903,0,0,-7.5570903,-1691.81,4072.6289)">
    <g
       style="fill:#000000"
       transform="matrix(0.96436446,0,0,0.96436446,293.23402,483.37886)"
       id="g104">
      <path
         id="path106"
         style="fill:#000000;fill-opacity:1;fill-rule:nonzero;stroke:none"
         d="m 0,0 c -0.072,-9.735 -4.059,-17.516 -11.983,-23.132 -5.413,-3.835 -11.591,-5.427 -18.17,-4.697 -11.513,1.277 -19.458,7.442 -23.814,18.176 -1.043,2.571 -1.611,5.287 -1.661,8.058 -0.181,9.892 -0.38,19.784 -0.407,29.678 -0.035,12.947 9.428,24.227 22.148,26.74 14.931,2.95 29.138,-6.574 32.761,-20.802 0.828,-3.255 0.753,-6.586 0.796,-9.902 0.045,-3.461 0.01,-6.922 0.01,-10.383 m -26.582,1.883 c 0.131,-13.724 0.261,-27.481 0.393,-41.328 2.693,0.126 5.161,0.611 7.58,1.475 10.066,3.597 16.844,13.329 16.702,24.029 -0.114,8.634 -0.212,17.268 -0.314,25.902 -0.012,0.898 -0.002,1.796 -0.002,2.731 h -20.312 c -0.038,-0.197 -0.075,-0.299 -0.074,-0.403 0.024,-2.132 0.052,-4.264 0.076,-6.397 0.04,-3.315 -0.905,-4.736 -4.049,-6.009 m -2.221,-0.002 c -2.607,0.821 -4.45,2.703 -4.294,5.833 0.095,1.918 -0.061,3.847 0.004,5.767 0.033,0.994 -0.326,1.232 -1.26,1.227 -6.021,-0.033 -12.043,-0.036 -18.064,0.009 -0.898,0.007 -1.095,-0.238 -1.082,-1.104 0.13,-8.734 0.224,-17.469 0.308,-26.204 0.032,-3.336 0.367,-6.621 1.541,-9.77 2.734,-7.346 7.758,-12.501 15.007,-15.429 2.579,-1.042 5.299,-1.634 8.233,-1.623 -0.131,13.802 -0.262,27.523 -0.393,41.294 M -2.988,30.69 C -3.97,41.683 -14.354,53.734 -29.622,53.094 -43.86,52.496 -53.067,40.523 -53.468,30.739 c 0.095,-0.027 0.194,-0.079 0.292,-0.079 6.353,-0.013 12.706,-0.012 19.059,-0.041 0.627,-0.003 0.719,0.351 0.87,0.806 0.721,2.169 2.649,3.576 4.884,3.6 2.288,0.026 4.321,-1.341 5.049,-3.515 0.223,-0.669 0.545,-0.835 1.194,-0.828 2.821,0.027 5.644,0.009 8.468,0.008 h 10.664 m -22.225,-5.475 c 0,1.539 0.046,3.079 -0.012,4.615 -0.061,1.676 -1.258,2.874 -2.819,2.94 -1.671,0.071 -3.126,-0.882 -3.161,-2.394 -0.077,-3.316 -0.044,-6.642 0.121,-9.953 0.085,-1.709 1.615,-2.767 3.312,-2.629 1.59,0.129 2.747,1.435 2.755,3.129" />
    </g>
  </g>
</svg>
